<svg width="11" height="11" viewBox="0 0 11 11" fill="none" xmlns="http://www.w3.org/2000/svg">
<path fill-rule="evenodd" clip-rule="evenodd" d="M9.77541 2.2H1.47716V10.2667H9.77541V2.2ZM1.47716 1.46667C1.09525 1.46667 0.785645 1.79499 0.785645 2.2V10.2667C0.785645 10.6717 1.09525 11 1.47717 11H9.77541C10.1573 11 10.4669 10.6717 10.4669 10.2667V2.2C10.4669 1.79499 10.1573 1.46667 9.77541 1.46667H1.47716Z" fill="#6B7074"/>
<path d="M0.785645 2.2C0.785645 1.79499 1.09525 1.46667 1.47716 1.46667H9.77541C10.1573 1.46667 10.4669 1.79499 10.4669 2.2V3.66667H0.785645V2.2Z" fill="#6B7074"/>
<path fill-rule="evenodd" clip-rule="evenodd" d="M9.77541 2.2H1.47716V2.93334H9.77541V2.2ZM1.47716 1.46667C1.09525 1.46667 0.785645 1.79499 0.785645 2.2V3.66667H10.4669V2.2C10.4669 1.79499 10.1573 1.46667 9.77541 1.46667H1.47716Z" fill="#6B7074"/>
<path d="M2.16932 0.733333C2.16932 0.328324 2.47892 0 2.86084 0C3.24275 0 3.55236 0.328325 3.55236 0.733333V1.46667C3.55236 1.87168 3.24275 2.2 2.86084 2.2C2.47892 2.2 2.16932 1.87168 2.16932 1.46667V0.733333Z" fill="#6B7074"/>
<path d="M7.7011 0.733333C7.7011 0.328324 8.0107 0 8.39262 0C8.77453 0 9.08414 0.328325 9.08414 0.733333V1.46667C9.08414 1.87168 8.77453 2.2 8.39262 2.2C8.0107 2.2 7.7011 1.87168 7.7011 1.46667V0.733333Z" fill="#6B7074"/>
</svg>
